<svg xmlns="http://www.w3.org/2000/svg" viewBox="0 0 920 240">
<g transform="translate(20,10)">
<path fill="#C4162C" d="M40 18H150 C170 18 182 30 182 50 V132 C182 154 167 173 140 187 L95 210 L50 187 C23 173 8 154 8 132 V50 C8 30 20 18 40 18Z"/>
<path fill="#FFFFFF" d="M73 44H117 V60 C117 72 109 80 95 80 C81 80 73 72 73 60 V44Z"/>
<path fill="#FFFFFF" d="M76 96H114V178 L95 196 L76 178 V96Z"/>
</g>
<g transform="translate(250,130)">
<text x="0" y="0" font-family="Space Grotesk, Arial, sans-serif" font-size="112" font-weight="700" fill="#C4162C">Integro</text>
<text x="6" y="76" font-family="Space Grotesk, Arial, sans-serif" font-size="56" font-weight="500" fill="#F5F5F5">Seguros</text>
</g>
</svg>