<?xml version="1.0" encoding="UTF-8"?>
<!DOCTYPE svg PUBLIC "-//W3C//DTD SVG 1.1//EN" "http://www.w3.org/Graphics/SVG/1.1/DTD/svg11.dtd">
<!-- Creator: CorelDRAW 2020 (64 Bit) -->
<svg xmlns="http://www.w3.org/2000/svg" xml:space="preserve" width="1240px" height="1748px" version="1.1" style="shape-rendering:geometricPrecision; text-rendering:geometricPrecision; image-rendering:optimizeQuality; fill-rule:evenodd; clip-rule:evenodd"
viewBox="0 0 124000 174781"
 xmlns:xlink="http://www.w3.org/1999/xlink"
 xmlns:xodm="http://www.corel.com/coreldraw/odm/2003">
 <defs>
  <style type="text/css">
   <![CDATA[
    .fil0 {fill:none}
    .fil1 {fill:#CF3438}
    .fil2 {fill:#CD3440}
   ]]>
  </style>
 </defs>
 <g id="Camada_x0020_1">
  <metadata id="CorelCorpID_0Corel-Layer"/>
  <rect class="fil0" x="6487" y="25523" width="110841" height="123931"/>
  <g id="_503736658448">
   <g>
    <path class="fil1" d="M33620 132086l-1029 -470c-1029,-470 -1582,-772 -1582,-1566 0,-983 962,-1302 2035,-1302 855,5 1702,157 2505,447 40,-240 61,-483 62,-727 0,-216 -22,-431 -62,-643 -869,-354 -1801,-529 -2740,-514 -1929,0 -3556,1090 -3556,2700 0,1370 559,2159 2461,2975l793 341c1219,559 1678,984 1678,1823 0,1118 -1068,1520 -2097,1520 -1036,-1 -2062,-206 -3019,-603 -62,231 -90,470 -84,710 0,237 28,474 84,704 1021,459 2136,671 3254,621 2013,0 3640,-1118 3640,-2936 0,-1476 -749,-2353 -2354,-3080l11 0zm47917 4596l0 0c-1839,0 -2795,-1409 -2795,-3959 0,-2549 1006,-3981 2823,-3981 1817,0 2829,1348 2829,3981 0,2634 -989,3959 -2851,3959l-6 0zm0 -9377l0 0c-2846,0 -4624,1991 -4624,5418 0,3428 1756,5396 4602,5396 2846,0 4646,-2035 4646,-5396 0,-3444 -1677,-5418 -4624,-5418zm10696 4775l0 0 -1029 -469c-1028,-470 -1582,-772 -1582,-1566 0,-984 962,-1303 2030,-1303 854,6 1701,157 2505,448 44,-240 67,-483 67,-727 0,-216 -22,-432 -67,-643 -869,-357 -1801,-533 -2740,-515 -1923,0 -3550,1091 -3550,2701 0,1370 559,2158 2460,2974l794 341c1219,560 1677,984 1677,1823 0,1118 -1068,1521 -2097,1521 -1036,-1 -2062,-206 -3019,-604 -112,465 -112,950 0,1415 1021,458 2136,671 3254,620 2013,0 3640,-1118 3640,-2935 0,-1476 -749,-2354 -2354,-3081l11 0zm-17400 -4685l0 0c-1141,5 -2204,582 -2829,1537 -22,-488 -78,-973 -168,-1453 -244,-62 -496,-90 -749,-84 -259,0 -518,28 -771,84l0 10494c281,56 568,84 855,84 308,0 614,-28 917,-84l0 -5938c0,-1901 1202,-3186 2723,-3186 272,-14 544,7 811,61 60,-251 90,-508 89,-766 0,-223 -22,-446 -67,-665 -268,-51 -539,-79 -811,-84zm-8778 84l0 0 0 8946c-716,172 -1450,258 -2186,257 -1991,0 -3036,-1074 -3036,-3405l0 -5798c-284,-56 -572,-84 -861,-84 -308,0 -615,28 -917,84l0 5843c0,3170 1677,4775 4707,4775 1377,-23 2746,-224 4071,-599l0 -10019c-291,-56 -587,-84 -884,-84 -300,0 -599,28 -894,84l0 0zm-23930 -174l0 0c-2796,0 -4580,2186 -4580,5441 0,3254 1840,5350 5032,5350 1046,12 2084,-178 3059,-559 45,-224 67,-453 67,-682 0,-231 -22,-461 -67,-688 -942,330 -1932,504 -2930,515 -2142,0 -3321,-1370 -3427,-3595l6916 0c40,-385 60,-771 61,-1158 0,-2846 -1677,-4624 -4109,-4624l-22 0zm5731 5463l0 0c0,3058 1844,4943 4472,4943 873,11 1739,-157 2545,-492l0 793c0,2181 -1119,3081 -3126,3081 -1080,6 -2148,-229 -3125,-687 -41,234 -61,472 -62,710 0,243 22,486 62,726 1045,465 2177,699 3321,688 2974,0 4708,-1677 4708,-4713l0 -9908c-1076,-391 -2211,-594 -3355,-598 -3467,0 -5396,2314 -5396,5462l-44 -5zm-14236 -682l0 0 5681 -308c151,-1929 1325,-3086 2795,-3086 1588,0 2466,1286 2466,3086l-5261 0 -5681 308zm21252 3763l0 0c-706,301 -1468,453 -2236,447 -1795,0 -2952,-1370 -2952,-3489 0,-2505 1286,-4065 3489,-4065 578,-22 1156,50 1711,213l-12 6894z"/>
   </g>
   <g>
    <path class="fil2" d="M42825 112920c-209,59 -1134,149 -1582,149 -1701,0 -2626,-507 -2626,-1701 0,-1194 925,-1671 2626,-1671 567,0 1223,59 1582,89l0 3134zm-2239 -11101l0 0c-1462,-30 -2745,149 -3998,447 -239,836 -209,2059 0,2925 1551,-358 2417,-388 3402,-388 1909,0 2835,776 2835,2357l0 149c-567,-59 -1254,-119 -1731,-119 -3163,0 -5879,1134 -5879,4178 0,3432 2447,4595 5998,4595 1671,0 3491,-298 5163,-805l0 -7729c0,-3701 -2000,-5521 -5790,-5610z"/>
    <path class="fil2" d="M33753 101998c-1761,0 -2775,686 -3730,1910 -90,-627 -209,-1134 -418,-1761 -358,-120 -985,-149 -1522,-149 -508,0 -1164,59 -1492,149l0 13518c447,119 1194,149 1850,149 627,0 1462,-60 1850,-149l0 -6595c0,-2626 1373,-4029 3223,-4029 328,0 895,0 1224,60 209,-865 238,-2119 59,-2984 -209,-60 -746,-119 -1044,-119z"/>
    <path class="fil2" d="M16922 112949c-388,0 -984,0 -1402,-149l0 -7430c507,-269 1223,-418 2148,-418 1851,0 2835,1283 2835,3700 0,2537 -1164,4297 -3581,4297zm1373 -11071l0 0c-1074,0 -2119,239 -2775,567l0 -6625c-1045,388 -2149,926 -3074,1672 -477,387 -627,776 -627,1342l0 16353c985,418 2985,776 4894,776 4835,0 7610,-2954 7610,-7221 0,-4238 -1970,-6864 -6028,-6864z"/>
    <path class="fil2" d="M57148 112741c-626,179 -1074,208 -1581,208 -2447,0 -3402,-1611 -3402,-3939 0,-2596 955,-4177 3372,-4177 716,0 1164,89 1611,208l0 7700zm0 -13907l0 0 0 3253c-656,-179 -1343,-209 -1939,-209 -4089,0 -6864,2746 -6864,7132 0,4477 2716,6953 6953,6953 1940,0 3850,-268 5551,-835l0 -19308c-1045,388 -2149,926 -3074,1672 -478,387 -627,776 -627,1342z"/>
    <path class="fil2" d="M83617 107638l-1492 -627c-865,-358 -1372,-657 -1372,-1224 0,-865 775,-1044 1790,-1044 1015,0 2059,120 3492,567 179,-985 179,-1910 0,-2775 -896,-478 -2567,-716 -4029,-716 -2865,0 -5043,1552 -5043,3879 0,2089 895,3133 3402,4148l1163 477c1105,448 1433,717 1433,1433 0,1074 -1074,1253 -1970,1253 -1492,0 -2626,-298 -4058,-806 -239,866 -239,2000 0,2895 1223,656 2895,865 4655,865 2835,0 5103,-1492 5103,-4177 0,-2209 -955,-3253 -3074,-4148z"/>
    <path class="fil2" d="M95136 112920c-1850,0 -3073,-1463 -3073,-4029 0,-2447 984,-4028 3103,-4028 895,0 1522,149 2358,477 238,-836 686,-1791 1313,-2596 -1164,-597 -2298,-925 -4148,-925 -4089,0 -6446,2894 -6446,7072 0,4327 2417,7072 6595,7072 1522,0 2924,-268 4058,-895 -507,-656 -1074,-1552 -1402,-2596 -1045,418 -1492,448 -2358,448z"/>
    <path class="fil2" d="M105491 112979c-2059,0 -2686,-1671 -2686,-4058 0,-2328 627,-4118 2686,-4118 2119,0 2716,1730 2716,4118 0,2506 -687,4058 -2716,4058zm0 -11160l0 0c-4148,0 -6475,2835 -6475,7102 0,4327 2446,7042 6475,7042 4178,0 6505,-2775 6505,-7042 0,-4297 -2327,-7102 -6505,-7102z"/>
    <path class="fil2" d="M66578 107279c269,-1641 1253,-2625 2745,-2625 1672,0 2328,1133 2388,2625l-5133 0zm2805 -5460l0 0c-3999,0 -6446,2685 -6446,7162 0,4476 2597,6982 7043,6982 1522,0 3163,-268 4208,-776 209,-865 209,-1999 0,-2864 -1373,388 -2537,626 -3820,626 -2059,0 -3491,-775 -3790,-2954l8415 0c120,-328 149,-1432 149,-1880 0,-4028 -2267,-6296 -5759,-6296z"/>
    <path class="fil2" d="M60336 44234c-3364,0 -7042,309 -10675,926 3678,-4722 9509,-7767 16012,-7767 4799,0 9598,1810 12828,4502 583,485 1031,529 1480,88 448,-441 404,-883 -90,-1456 -4216,-4899 -10405,-8209 -17716,-8076 -9554,176 -17672,6222 -20767,14607 -2826,883 -5427,1942 -7714,3221 -629,354 -853,795 -629,1324 225,486 673,662 1301,486 1974,-574 3992,-1059 6100,-1501 -224,1103 -358,2251 -358,3442 -180,7723 3946,15049 10315,19065 628,397 1167,397 1525,-89 359,-485 314,-926 -224,-1412 -4037,-3618 -6279,-9002 -6279,-14342 0,-2692 538,-5296 1570,-7635 2108,-176 4395,-308 6907,-308 16326,0 30096,5383 30096,12444 0,3575 -4530,7149 -9913,9532 -1300,574 -1435,971 -1256,1545 180,529 763,706 1436,485 9419,-3089 16550,-8164 16550,-14298 0,-8340 -13455,-14783 -30499,-14783z"/>
    <path class="fil2" d="M68132 86657l0 -17869c0,-685 -662,-935 -1207,-624l-4542 2614 0 16740 4879 7c480,1 870,-388 870,-868z"/>
    <path class="fil2" d="M56853 74608l0 12357c0,309 251,560 560,560l3437 0 0 -15866 -3431 1976c-350,199 -566,513 -566,973z"/>
   </g>
  </g>
 </g>
</svg>
