<?xml version="1.0" encoding="UTF-8"?>
<!DOCTYPE svg PUBLIC "-//W3C//DTD SVG 1.1//EN" "http://www.w3.org/Graphics/SVG/1.1/DTD/svg11.dtd">
<!-- Creator: CorelDRAW 2020 (64 Bit) -->
<svg xmlns="http://www.w3.org/2000/svg" xml:space="preserve" width="1748px" height="1240px" version="1.1" style="shape-rendering:geometricPrecision; text-rendering:geometricPrecision; image-rendering:optimizeQuality; fill-rule:evenodd; clip-rule:evenodd"
viewBox="0 0 174800 124014"
 xmlns:xlink="http://www.w3.org/1999/xlink"
 xmlns:xodm="http://www.corel.com/coreldraw/odm/2003">
 <defs>
  <style type="text/css">
   <![CDATA[
    .fil0 {fill:none}
    .fil2 {fill:#00833E;fill-rule:nonzero}
    .fil1 {fill:#888B8D;fill-rule:nonzero}
    .fil3 {fill:#E1251B;fill-rule:nonzero}
   ]]>
  </style>
 </defs>
 <g id="Camada_x0020_1">
  <metadata id="CorelCorpID_0Corel-Layer"/>
  <rect class="fil0" x="15053" y="14879" width="144497" height="94439"/>
  <path class="fil1" d="M21656 99808l1843 -2149c1657,1411 3315,2210 5465,2210 1842,0 3070,-860 3070,-2149l0 -61c0,-1229 -676,-1904 -3868,-2641 -3685,-859 -5712,-1965 -5712,-5159l0 0c0,-2946 2456,-4973 5896,-4973 2517,0 4483,737 6263,2150l-1597 2271c-1535,-1167 -3131,-1781 -4666,-1781 -1782,0 -2825,922 -2825,2027l0 62c0,1350 798,1903 4114,2701 3623,860 5527,2210 5527,5035l0 62c0,3255 -2518,5159 -6141,5159 -2825,0 -5281,-922 -7369,-2764l0 0zm18667 -14737l12774 0 0 2701 -9764 0 0 4483 8658 0 0 2702 -8658 0 0 4605 9886 0 0 2702 -12896 0 0 -17193 0 0zm17134 8657l0 0c0,-4851 3684,-8965 8903,-8965 3009,0 4852,860 6632,2333l-1903 2273c-1352,-1106 -2641,-1843 -4852,-1843 -3192,0 -5588,2764 -5588,6079l0 62c0,3561 2334,6141 5834,6141 1597,0 3132,-492 4175,-1290l0 -3254 -4421 0 0 -2641 7369 0 0 7246c-1719,1474 -4114,2703 -7184,2703 -5404,60 -8965,-3808 -8965,-8844l0 0zm21676 1290l0 -9947 3009 0 0 9824c0,3193 1658,4913 4359,4913 2702,0 4360,-1597 4360,-4790l0 -9948 3009 0 0 9764c0,5157 -2886,7737 -7430,7737 -4483,0 -7307,-2580 -7307,-7553l0 0zm20817 -9947l7675 0c2150,0 3869,613 4975,1719 921,921 1412,2210 1412,3746l0 61c0,2825 -1720,4544 -4114,5219l4667 6510 -3623 0 -4238 -6019 -3807 0 0 6019 -3008 0 0 -17255 61 0 0 0zm7491 8534c2150,0 3561,-1104 3561,-2886l0 -60c0,-1843 -1350,-2887 -3561,-2887l-4421 0 0 5772 4421 0 0 61 0 0zm10992 123l0 0c0,-4912 3746,-8965 9028,-8965 5280,0 8965,3992 8965,8842l0 62c0,4851 -3746,8905 -9027,8905 -5282,0 -8966,-3992 -8966,-8844l0 0zm14860 0l0 0c0,-3377 -2455,-6202 -5832,-6202 -3440,0 -5834,2764 -5834,6079l0 62c0,3378 2455,6080 5834,6080 3438,61 5832,-2642 5832,-6019zm7062 6080l1842 -2149c1659,1411 3317,2210 5466,2210 1843,0 3070,-860 3070,-2149l0 -61c0,-1229 -675,-1904 -3869,-2641 -3683,-859 -5710,-1965 -5710,-5159l0 0c0,-2946 2456,-4973 5894,-4973 2518,0 4483,737 6264,2150l-1596 2271c-1535,-1167 -3133,-1781 -4668,-1781 -1780,0 -2824,922 -2824,2027l0 62c0,1350 798,1903 4114,2701 3623,860 5527,2210 5527,5035l0 62c0,3255 -2518,5159 -6141,5159 -2764,0 -5281,-922 -7369,-2764l0 0z"/>
  <g id="_95446454208">
   <path class="fil2" d="M80852 73281l19405 0c21124,0 31686,-10993 31686,-26406l0 -123c0,-15474 -10378,-25668 -31073,-25668l-20018 0 0 52197 0 0zm17439 -14247l0 -23642 2887 0c7982,0 13141,3562 13141,11729l0 184c0,8167 -5159,11729 -13141,11729l-2887 0z"/>
   <polygon id="path34_6_" class="fil2" points="136303,73281 153681,73281 153681,21084 136303,21084 "/>
   <polygon id="path34_5_" class="fil3" points="39096,55901 56474,55901 56474,38462 39096,38462 "/>
   <polygon id="path34_4_" class="fil2" points="56474,73281 73852,73281 73852,21084 56474,21084 "/>
   <polygon id="path34_2_" class="fil2" points="21656,73281 39034,73281 39034,21084 21656,21084 "/>
  </g>
 </g>
</svg>
