<?xml version="1.0" encoding="UTF-8"?>
<!DOCTYPE svg PUBLIC "-//W3C//DTD SVG 1.1//EN" "http://www.w3.org/Graphics/SVG/1.1/DTD/svg11.dtd">
<!-- Creator: CorelDRAW 2020 (64 Bit) -->
<svg xmlns="http://www.w3.org/2000/svg" xml:space="preserve" width="1748px" height="1240px" version="1.1" style="shape-rendering:geometricPrecision; text-rendering:geometricPrecision; image-rendering:optimizeQuality; fill-rule:evenodd; clip-rule:evenodd"
viewBox="0 0 174800 124014"
 xmlns:xlink="http://www.w3.org/1999/xlink"
 xmlns:xodm="http://www.corel.com/coreldraw/odm/2003">
 <defs>
  <style type="text/css">
   <![CDATA[
    .fil1 {fill:white}
    .fil0 {fill:#F26522;fill-rule:nonzero}
    .fil2 {fill:white;fill-rule:nonzero}
   ]]>
  </style>
 </defs>
 <g id="Camada_x0020_1">
  <metadata id="CorelCorpID_0Corel-Layer"/>
  <path class="fil0" d="M16129 33909l141926 0c2528,0 4579,2050 4579,4578l0 47614c0,2528 -2051,4579 -4579,4579l-141926 0c-2528,0 -4578,-2051 -4578,-4579l0 -47614c0,-2528 2050,-4578 4578,-4578z"/>
  <g id="_936520050816">
   <path class="fil1" d="M114393 53134c182,-216 362,-469 544,-652 608,-562 1388,-909 2215,-987 828,-79 1658,117 2363,555 318,207 589,478 796,795 206,318 343,674 402,1047 122,582 171,1176 146,1770l0 7370c0,399 -109,471 -473,471 -702,-37 -1405,-37 -2108,0 -327,0 -398,-110 -398,-398l0 -7083c11,-327 -13,-654 -73,-977 -5,-207 -53,-412 -145,-599 -92,-186 -223,-352 -387,-482 -163,-131 -352,-224 -555,-275 -204,-50 -417,-55 -621,-15 -419,-6 -825,142 -1140,415 -316,274 -519,654 -568,1067 -79,465 -103,938 -73,1409l0 6503c0,325 -108,435 -435,435 -727,-37 -1417,0 -2139,0 -254,0 -399,-72 -399,-362l0 -11054c0,-289 107,-325 361,-325l1454 0c837,0 1055,217 1126,1048 33,108 -7,215 107,324l0 0zm-19620 3970l0 -4151c0,-362 -109,-469 -435,-431 -316,17 -631,17 -945,0 -292,0 -328,-75 -254,-327 109,-433 217,-905 292,-1337 36,-254 145,-290 363,-326 326,0 763,146 944,-72 217,-252 73,-649 73,-1011l0 -1338c0,-216 36,-325 292,-325 544,37 1088,0 1670,0 654,37 908,291 908,942 0,431 36,903 0,1335 -36,362 73,470 437,470 616,-35 1234,0 1887,0 255,0 327,73 255,326 -109,432 -218,830 -292,1263 -36,362 -218,401 -507,401 -438,-39 -909,0 -1344,0 -255,0 -364,35 -364,322l0 7191c-11,185 20,369 93,540 71,170 182,322 322,444 140,122 306,211 486,260 180,48 368,56 551,21 473,-35 584,108 546,541 -36,421 -36,845 0,1266 0,216 -73,325 -254,361 -962,325 -2009,287 -2944,-109 -502,-213 -933,-564 -1243,-1012 -308,-449 -481,-975 -499,-1517 -111,-1342 -1,-2680 -38,-3727l0 0zm-7448 -476l0 -3720c0,-289 -72,-434 -399,-397 -339,18 -678,18 -1017,0 -292,0 -328,-108 -255,-325 109,-435 218,-905 291,-1337 37,-255 147,-326 364,-291l36 0c981,-37 981,-37 981,-976l0 -1447c0,-254 37,-362 327,-362 546,36 1091,0 1599,0 617,0 907,253 944,903 37,494 37,989 0,1482 0,324 108,398 400,398 653,-38 1271,0 1925,0 217,0 291,70 254,289 -109,470 -218,940 -292,1410 -36,216 -145,289 -363,289l-1488 0c-255,0 -400,73 -400,362l0 6973c0,1085 509,1517 1561,1482 328,-39 474,36 437,398 -37,457 -37,916 0,1373 12,91 -12,183 -66,256 -55,74 -135,124 -225,140 -903,286 -1876,260 -2762,-72 -607,-243 -1121,-672 -1467,-1224 -345,-552 -507,-1198 -458,-1846 35,-1301 73,-2529 73,-3758l0 0zm42569 5424c0,1159 0,1194 -1126,1411 -1925,397 -3813,324 -5340,-1159 -876,-896 -1437,-2050 -1597,-3288 -195,-953 -191,-1934 10,-2884 202,-950 593,-1850 1157,-2644 716,-926 1724,-1589 2861,-1883 1137,-294 2343,-204 3423,256 436,181 691,398 617,939 -54,384 -54,774 0,1159 0,289 -36,322 -327,180 -527,-272 -1114,-410 -1708,-400 -648,-12 -1278,202 -1784,605 -504,404 -851,970 -977,1601 -242,945 -268,1932 -73,2889 437,2133 1962,2819 4069,2277 762,-181 762,-217 762,579 28,119 39,241 33,362l0 0zm16061 -6426l0 -7479c0,-325 73,-469 437,-433 583,35 1166,0 1742,35 104,-4 209,14 306,54 97,39 185,98 257,173 72,76 127,165 161,263 35,98 47,203 39,306l0 14415c0,434 -73,579 -545,543 -630,-36 -1260,-36 -1889,0 -399,36 -544,-73 -544,-506 71,-2457 36,-4914 36,-7371l0 0zm-12352 1875l0 5600c0,363 -108,433 -435,433 -727,-34 -1417,0 -2141,0 -254,0 -399,-34 -399,-362l0 -10802c0,-219 72,-325 292,-361 763,-145 1526,-290 2252,-470 327,-71 400,0 400,325 31,1880 31,3759 31,5637l0 0zm-2942 -8013l0 -1447c0,-218 73,-290 292,-290l1888 0c509,0 763,290 799,794 37,580 0,1192 37,1771 0,181 -73,255 -292,290 -799,143 -1563,324 -2325,506 -254,71 -363,0 -363,-289 -5,-433 -36,-901 -36,-1335l0 0zm-59661 5024c-143,415 -412,777 -769,1037 -358,259 -787,402 -1230,410l-1525 0c-255,0 -328,-72 -291,-325l0 -4986c0,-253 35,-361 326,-361 473,37 944,0 1453,0 520,-21 1030,152 1426,487 397,335 651,806 713,1319 184,801 149,1636 -103,2419l0 0zm3197 -4152c-414,-773 -1031,-1420 -1787,-1871 -755,-452 -1618,-691 -2500,-695 -1925,-179 -3850,-36 -5737,-107 -328,0 -438,71 -438,432l0 14960c0,362 110,433 438,433 652,-36 1307,0 1961,0 798,0 1054,-253 1054,-1084 0,-1120 35,-2240 0,-3396 0,-399 107,-505 471,-470 195,18 390,18 584,0 1002,49 2006,-48 2979,-290 925,-219 1760,-720 2384,-1433 626,-711 1011,-1600 1104,-2540 212,-1336 35,-2706 -514,-3943l1 4zm8067 9710c-85,417 -319,788 -658,1048 -339,258 -762,386 -1189,361 -398,25 -793,-86 -1118,-317 -325,-232 -558,-566 -663,-948 -521,-1736 -495,-3589 74,-5310 64,-226 172,-436 318,-620 147,-183 328,-337 534,-451 205,-113 432,-186 667,-214 233,-26 470,-8 697,56 293,57 566,192 789,389 225,197 391,450 482,733 508,1719 533,3541 73,5273l-6 0 0 0zm3343 -4010c-129,-1202 -683,-2318 -1563,-3153 -880,-834 -2029,-1331 -3244,-1405 -1215,-74 -2416,281 -3391,1004 -976,722 -1661,1763 -1937,2939 -302,1266 -352,2578 -145,3862 291,1916 1166,3469 3087,4083 924,373 1938,474 2918,288 979,-185 1884,-650 2604,-1335 606,-627 1077,-1369 1383,-2183 306,-813 441,-1681 397,-2548 0,-519 -38,-1038 -112,-1552l3 0 0 0zm21732 580l-3487 0c-182,0 -293,-35 -293,-253 -43,-826 230,-1638 763,-2274 160,-172 354,-308 570,-401 215,-93 448,-142 683,-142 235,0 468,49 684,142 215,93 409,229 569,401 530,640 813,1446 800,2274 2,254 -144,253 -289,253zm2943 -1264c-141,-1062 -664,-2037 -1471,-2747 -808,-709 -1846,-1105 -2924,-1114 -1097,-108 -2196,179 -3097,809 -900,631 -1542,1560 -1808,2621 -459,1435 -560,2960 -292,4442 113,719 384,1405 791,2011 408,605 944,1113 1569,1492 1358,721 2916,976 4433,723 709,-65 1399,-261 2035,-580 181,-71 291,-143 291,-361l0 -1590c0,-252 -72,-289 -291,-179 -962,451 -2032,626 -3089,504 -707,-18 -1384,-287 -1910,-758 -527,-469 -866,-1110 -960,-1807 -36,-325 38,-433 400,-433 1018,36 2034,0 3051,0l3089 0c291,0 399,-110 399,-398 36,-884 -36,-1768 -216,-2635l0 0zm31058 3718l0 614c-18,282 -96,555 -229,803 -131,249 -315,467 -538,641 -223,173 -480,299 -753,367 -275,69 -561,79 -841,31 -338,-33 -656,-180 -899,-416 -245,-236 -400,-547 -444,-882 -74,-375 -31,-764 125,-1114 158,-350 419,-642 751,-838 797,-394 1707,-509 2579,-325 218,37 254,144 254,325l-5 794 0 0zm2871 -3902c23,-718 -187,-1425 -599,-2016 -412,-591 -1005,-1035 -1689,-1267 -1760,-621 -3689,-570 -5413,145 -108,36 -254,71 -254,253l0 1913c905,-508 1942,-734 2979,-648 1562,144 2105,721 2070,2276 0,252 -38,362 -327,324 -1046,-127 -2106,-53 -3124,217 -964,174 -1830,700 -2421,1477 -592,776 -868,1744 -775,2713 7,418 98,830 266,1213 170,383 413,729 718,1017 305,289 664,515 1055,665 393,149 813,220 1235,208 688,54 1376,-72 2002,-363 623,-292 1159,-739 1557,-1299 -10,218 2,436 36,652 72,579 255,794 836,831 508,33 1053,1 1562,34 218,0 254,-70 254,-290 73,-2707 104,-5380 33,-8055l-1 0 0 0z"/>
   <path class="fil2" d="M66396 73370c762,0 1167,-290 1167,-832 2,-102 -16,-203 -52,-298 -37,-96 -92,-183 -163,-257 -71,-74 -156,-133 -250,-174 -94,-41 -196,-64 -299,-65 -255,-37 -509,-74 -799,-109 -447,-48 -861,-254 -1168,-579 -137,-144 -244,-315 -312,-502 -69,-186 -98,-384 -86,-583 -5,-233 37,-466 124,-683 87,-217 219,-415 384,-581 191,-169 417,-298 660,-379 244,-80 501,-110 756,-91 692,-6 1367,209 1926,614l-508 723c-447,-283 -961,-444 -1489,-468 -249,-12 -494,65 -691,216 -96,78 -172,178 -223,291 -52,113 -74,236 -69,360 2,89 21,177 60,259 37,80 91,153 158,212 179,166 409,268 653,289 146,36 401,72 654,108 476,37 920,258 1235,614 260,317 401,712 401,1120 -38,1121 -727,1698 -2109,1739 -834,18 -1647,-264 -2288,-795l583 -685c510,358 1120,546 1745,535l0 1zm3817 -5059l3814 0 0 829 -2906 0 0 1698 2471 0 0 796 -2471 0 0 1738 2906 0 0 830 -3814 0 0 -5891zm7364 2632l2108 0 0 1191c0,277 -56,552 -164,809 -107,255 -265,489 -465,683 -198,195 -435,349 -695,453 -259,103 -536,155 -817,151 -414,19 -824,-94 -1167,-327 -291,-172 -530,-422 -690,-720 -36,-74 -73,-181 -109,-254 -49,-101 -73,-213 -72,-325 -55,-455 -80,-915 -73,-1373 -8,-459 16,-917 73,-1372 26,-206 102,-405 217,-580 160,-297 399,-548 690,-722 345,-225 751,-337 1163,-324 520,-18 1026,163 1417,505 352,328 595,758 691,1229l-945 0c-76,-237 -213,-450 -399,-616 -210,-157 -465,-246 -727,-253 -187,-6 -375,32 -545,109 -142,66 -267,165 -363,290 -115,147 -190,322 -217,507 -97,791 -97,1590 0,2381 27,185 101,360 217,508 104,116 227,213 363,290 167,89 354,139 545,144 164,10 327,-17 479,-80 152,-63 288,-160 395,-282 236,-243 366,-567 363,-903l0 -325 -1197 0 0 -794 -77 0 1 0zm3851 -2632l908 0 0 3829c-17,169 7,338 70,496 63,157 163,296 293,408 242,209 551,325 871,325 321,0 631,-116 873,-325 114,-121 202,-263 257,-419 57,-155 80,-320 70,-485l0 -3829 907 0 0 3901c11,276 -40,551 -146,807 -107,256 -268,485 -472,674 -404,374 -937,581 -1489,579 -275,9 -549,-38 -804,-137 -257,-100 -489,-250 -685,-442 -203,-189 -365,-418 -471,-674 -107,-256 -156,-531 -146,-807l0 -3901 -36 0zm7039 2602l1381 0c140,4 279,-18 411,-68 131,-50 250,-125 351,-221 86,-86 152,-188 196,-299 44,-113 64,-233 59,-353 9,-129 -13,-258 -63,-378 -51,-119 -130,-225 -230,-308 -192,-129 -421,-192 -653,-181l-1417 0 0 1808 -35 0 0 0zm-875 -2601l2324 0c435,-19 862,123 1198,398 189,151 340,344 441,563 101,219 150,459 143,700 15,361 -91,718 -302,1011 -212,295 -517,511 -865,613l1381 2639 -1091 0 -1234 -2529 -1156 0 0 2529 -908 0 0 -5924 69 0 0 0zm8660 3792l-875 -2601 -875 2601 1750 0zm255 795l-2253 0 -472 1336 -945 0 2179 -5924 763 0 2179 5924 -945 0 -506 -1336zm3744 472l1089 0c210,15 421,-23 611,-112 192,-88 356,-224 479,-395 112,-131 176,-297 181,-468 39,-361 52,-723 37,-1085 12,-374 -1,-748 -37,-1121 -27,-195 -101,-381 -217,-542 -118,-166 -276,-300 -460,-389 -184,-88 -389,-128 -594,-117l-1089 0 0 4229 0 0zm-910 -5058l2071 0c368,-18 735,67 1056,246 322,180 587,445 763,767 128,216 225,448 292,688 36,421 47,843 36,1266 6,447 -18,892 -71,1335 -26,113 -63,222 -110,327 -46,104 -107,201 -182,289 -175,291 -426,527 -727,687 -341,197 -731,297 -1126,289l-2034 0 0 -5889 32 -5 0 0zm6763 2955c-8,399 16,797 72,1192 27,184 102,358 218,504 104,115 227,213 362,290 168,90 355,139 545,145 193,12 385,-38 545,-145 135,-77 258,-175 363,-290 113,-153 199,-323 254,-504 97,-793 97,-1593 0,-2385 -24,-193 -114,-371 -254,-505 -96,-124 -221,-223 -363,-289 -349,-144 -742,-144 -1090,0 -142,66 -267,165 -362,289 -116,146 -191,320 -218,505 -73,392 -98,794 -72,1193zm-909 0c-9,-458 15,-917 71,-1373 28,-207 104,-406 218,-579 161,-299 399,-548 691,-723 345,-225 754,-339 1167,-325 423,-13 841,100 1198,325 284,184 520,431 689,723 122,170 198,370 218,579 39,457 52,915 38,1373 13,458 1,916 -38,1372 -20,208 -95,408 -218,580 -159,297 -397,548 -689,722 -357,226 -775,339 -1198,325 -414,21 -824,-94 -1167,-325 -293,-174 -531,-425 -691,-722 -36,-73 -71,-180 -108,-255 -50,-101 -75,-213 -72,-325 -112,-449 -148,-911 -109,-1372zm6972 -355l1380 0c139,4 280,-18 411,-68 131,-50 250,-125 352,-221 85,-86 151,-188 194,-299 45,-113 64,-233 59,-353 10,-129 -12,-258 -63,-378 -51,-119 -129,-225 -229,-308 -193,-129 -421,-192 -654,-181l-1414 0 0 1808 -36 0 0 0zm-909 -2601l2324 0c435,-19 862,123 1198,398 190,151 341,344 443,563 100,219 149,459 142,700 15,361 -91,718 -302,1011 -212,295 -516,511 -867,613l1382 2639 -1090 0 -1236 -2529 -1166 0 0 2529 -907 0 0 -5924 79 0 0 0zm8686 3792l-876 -2601 -875 2601 1751 0zm254 795l-2253 0 -472 1336 -945 0 2180 -5924 762 0 2180 5924 -945 0 -507 -1336 0 0z"/>
   <path class="fil1" d="M32800 56216c-111,-1284 -1503,-2089 -3340,-2089l-4174 0 0 -6588c7850,537 7627,8677 7627,8677l-113 0zm-7152 -9372l0 55c8064,52 7900,8428 7900,8428l0 20316c3,283 39,564 109,838 71,281 222,536 436,734 195,198 439,343 708,418 392,95 795,130 1198,105l4904 0 0 -25237c0,-3719 -3379,-5656 -8169,-5656l-7086 -1zm25066 9372l111 0c112,-1284 1504,-2089 3340,-2089l4176 0 0 -6588c-7905,537 -7628,8677 -7628,8677l1 0 0 0zm236 -9372c-4850,0 -8229,1938 -8229,5656l0 25238 4905 0c402,-2 802,-36 1199,-105 282,-41 537,-192 708,-418 213,-199 365,-453 436,-734 66,-275 102,-557 108,-838l0 -20370c0,0 -163,-8376 7901,-8431l-7028 2 0 0z"/>
  </g>
 </g>
</svg>
